<?xml version="1.0" encoding="UTF-8"?>
<!DOCTYPE svg PUBLIC "-//W3C//DTD SVG 1.1//EN" "http://www.w3.org/Graphics/SVG/1.1/DTD/svg11.dtd">
<!-- Creator: CorelDRAW -->
<svg xmlns="http://www.w3.org/2000/svg" xml:space="preserve" width="32mm" height="7mm" style="shape-rendering:geometricPrecision; text-rendering:geometricPrecision; image-rendering:optimizeQuality; fill-rule:evenodd; clip-rule:evenodd"
viewBox="0 0 32 7">
 <defs>
  <style type="text/css">
   <![CDATA[
    .fil0 {fill:#005FA4}
   ]]>
  </style>
 </defs>
 <g id="Camada_x0020_1">
  <metadata id="CorelCorpID_0Corel-Layer"/>
  <g id="_351203176">
   <path id="_351204208" class="fil0" d="M14.317 2.5573l-0.2794 -0.7201 -0.9095 0 -0.2779 0.7201 -0.2669 0 0.8878 -2.2784 0.2375 0 0.8815 2.2784 -0.2731 0zm-0.3585 -0.9545l-0.2654 -0.7155c-0.0062,-0.0186 -0.0166,-0.0492 -0.031,-0.0915 -0.0136,-0.0425 -0.0275,-0.0864 -0.042,-0.132 -0.0145,-0.0455 -0.0263,-0.0823 -0.0357,-0.1102 -0.0103,0.0424 -0.0218,0.0849 -0.0342,0.1272 -0.0113,0.0415 -0.0227,0.0802 -0.0341,0.1165 -0.0113,0.0352 -0.0212,0.0652 -0.0294,0.09l-0.2702 0.7155 0.742 0zm1.8812 0.9545l-0.7621 -2.0083 -0.0124 0c0.0041,0.0423 0.0077,0.0941 0.0108,0.1552 0.0031,0.061 0.0057,0.1277 0.0078,0.2002 0.0021,0.0714 0.0031,0.1444 0.0031,0.2188l0 1.4341 -0.2453 0 0 -2.2691 0.3912 0 0.7186 1.8874 0.0109 0 0.7294 -1.8874 0.3881 0 0 2.2691 -0.2608 0 0 -1.4527c0,-0.0672 0.0011,-0.1345 0.0031,-0.2018 0.0021,-0.0683 0.0047,-0.1325 0.0078,-0.1924 0.0031,-0.0611 0.0062,-0.1139 0.0093,-0.1583l-0.0124 0 -0.7714 2.0052 -0.2157 0zm1.7973 -2.2691l0.6426 0c0.2835,0 0.4966,0.0424 0.6394,0.1272 0.1428,0.0849 0.2142,0.2293 0.2142,0.4331 0,0.0879 -0.0171,0.1671 -0.0512,0.2375 -0.0332,0.0693 -0.0817,0.1268 -0.1459,0.1723 -0.0642,0.0455 -0.1434,0.0771 -0.2375,0.0946l0 0.0155c0.0994,0.0155 0.1874,0.044 0.2638,0.0854 0.0766,0.0414 0.1366,0.0993 0.1802,0.1738 0.0434,0.0745 0.0651,0.1692 0.0651,0.2841 0,0.1396 -0.0326,0.2577 -0.0978,0.3539 -0.0642,0.0962 -0.1552,0.1692 -0.2731,0.2188 -0.118,0.0487 -0.2577,0.0729 -0.4191,0.0729l-0.7807 0 0 -2.2691zm0.2638 0.9732l0.4346 0c0.1977,0 0.3342,-0.0326 0.4098,-0.0978 0.0766,-0.0652 0.1148,-0.1604 0.1148,-0.2856 0,-0.1294 -0.0455,-0.2225 -0.1365,-0.2794 -0.09,-0.0569 -0.2339,-0.0854 -0.4315,-0.0854l-0.3912 0 0 0.7482zm0 0.2219l0 0.849 0.4719 0c0.2018,0 0.3446,-0.0393 0.4284,-0.118 0.0838,-0.0796 0.1257,-0.1867 0.1257,-0.3213 0,-0.0859 -0.0191,-0.1592 -0.0575,-0.2203 -0.0372,-0.0611 -0.0983,-0.1076 -0.1831,-0.1397 -0.0838,-0.0331 -0.1961,-0.0497 -0.3368,-0.0497l-0.4486 0zm1.7276 1.074l0 -2.2691 0.2638 0 0 2.2691 -0.2638 0zm2.0876 0l-1.2634 0 0 -2.2691 1.2634 0 0 0.2329 -0.9995 0 0 0.7341 0.942 0 0 0.2297 -0.942 0 0 0.8396 0.9995 0 0 0.2328zm2.2133 0l-0.3042 0 -1.237 -1.9059 -0.0124 0c0.0031,0.0507 0.0067,0.1086 0.0109,0.1738 0.0041,0.0642 0.0072,0.133 0.0093,0.2064 0.0031,0.0725 0.0046,0.1465 0.0046,0.222l0 1.3037 -0.2452 0 0 -2.2691 0.3027 0 1.2323 1.8998 0.0109 0c-0.0021,-0.0363 -0.0047,-0.0875 -0.0078,-0.1537 -0.0031,-0.0673 -0.0062,-0.1392 -0.0093,-0.2158 -0.0021,-0.0775 -0.0031,-0.1494 -0.0031,-0.2157l0 -1.3146 0.2483 0 0 2.2691zm1.2526 0l-0.2654 0 0 -2.0362 -0.7139 0 0 -0.2329 1.6901 0 0 0.2329 -0.7108 0 0 2.0362zm2.2537 0l-1.2634 0 0 -2.2691 1.2634 0 0 0.2329 -0.9996 0 0 0.7341 0.9421 0 0 0.2297 -0.9421 0 0 0.8396 0.9996 0 0 0.2328zm-16.6411 4.2383l-0.2515 0 0 -1.608c0,-0.0611 0,-0.1133 0,-0.1568 0.0011,-0.0444 0.0021,-0.0848 0.0031,-0.121 0.0021,-0.0372 0.0047,-0.075 0.0078,-0.1133 -0.032,0.0331 -0.0621,0.0615 -0.09,0.0854 -0.0279,0.0227 -0.0626,0.0511 -0.104,0.0853l-0.2592 0.208 -0.1351 -0.1754 0.6146 -0.4733 0.2143 0 0 2.2691zm2.2955 -1.1377c0,0.1842 -0.0139,0.3487 -0.0418,0.4935 -0.028,0.1449 -0.0719,0.2675 -0.132,0.3678 -0.06,0.1005 -0.1376,0.1771 -0.2328,0.2298 -0.0952,0.0517 -0.2095,0.0776 -0.343,0.0776 -0.1687,0 -0.3083,-0.0461 -0.419,-0.1382 -0.1098,-0.0921 -0.192,-0.225 -0.2468,-0.3988 -0.0539,-0.1749 -0.0807,-0.3855 -0.0807,-0.6317 0,-0.2421 0.0242,-0.4502 0.0729,-0.624 0.0496,-0.1749 0.1293,-0.3088 0.239,-0.4019 0.1097,-0.0942 0.2545,-0.1413 0.4346,-0.1413 0.1707,0 0.3114,0.0466 0.4221,0.1397 0.1108,0.0921 0.193,0.2255 0.2468,0.4004 0.0539,0.1738 0.0807,0.3829 0.0807,0.6271zm-1.2369 0c0,0.2111 0.016,0.387 0.048,0.5277 0.0322,0.1407 0.0838,0.2462 0.1552,0.3166 0.0725,0.0693 0.1672,0.104 0.2841,0.104 0.1169,0 0.2111,-0.0347 0.2825,-0.104 0.0723,-0.0694 0.1246,-0.1744 0.1567,-0.315 0.0332,-0.1408 0.0497,-0.3172 0.0497,-0.5293 0,-0.208 -0.016,-0.3818 -0.0482,-0.5215 -0.032,-0.1407 -0.0838,-0.2463 -0.1551,-0.3166 -0.0714,-0.0714 -0.1666,-0.1071 -0.2856,-0.1071 -0.119,0 -0.2142,0.0357 -0.2856,0.1071 -0.0714,0.0703 -0.1231,0.1759 -0.1552,0.3166 -0.031,0.1397 -0.0465,0.3135 -0.0465,0.5215zm2.9924 0c0,0.1842 -0.014,0.3487 -0.0419,0.4935 -0.028,0.1449 -0.0719,0.2675 -0.132,0.3678 -0.06,0.1005 -0.1375,0.1771 -0.2328,0.2298 -0.0952,0.0517 -0.2095,0.0776 -0.3429,0.0776 -0.1687,0 -0.3084,-0.0461 -0.4191,-0.1382 -0.1097,-0.0921 -0.1919,-0.225 -0.2468,-0.3988 -0.0538,-0.1749 -0.0807,-0.3855 -0.0807,-0.6317 0,-0.2421 0.0243,-0.4502 0.073,-0.624 0.0496,-0.1749 0.1293,-0.3088 0.239,-0.4019 0.1097,-0.0942 0.2545,-0.1413 0.4346,-0.1413 0.1707,0 0.3114,0.0466 0.4221,0.1397 0.1108,0.0921 0.193,0.2255 0.2468,0.4004 0.0538,0.1738 0.0807,0.3829 0.0807,0.6271zm-1.237 0c0,0.2111 0.016,0.387 0.0482,0.5277 0.032,0.1407 0.0837,0.2462 0.1551,0.3166 0.0724,0.0693 0.1671,0.104 0.2841,0.104 0.1169,0 0.211,-0.0347 0.2825,-0.104 0.0724,-0.0694 0.1246,-0.1744 0.1567,-0.315 0.0331,-0.1408 0.0496,-0.3172 0.0496,-0.5293 0,-0.208 -0.016,-0.3818 -0.048,-0.5215 -0.0321,-0.1407 -0.0838,-0.2463 -0.1553,-0.3166 -0.0714,-0.0714 -0.1666,-0.1071 -0.2855,-0.1071 -0.1191,0 -0.2142,0.0357 -0.2856,0.1071 -0.0715,0.0703 -0.1232,0.1759 -0.1553,0.3166 -0.031,0.1397 -0.0465,0.3135 -0.0465,0.5215zm1.9556 -1.1641c0.1553,0 0.2728,0.0621 0.3524,0.1862 0.0807,0.1232 0.1211,0.2976 0.1211,0.5231 0,0.2256 -0.0389,0.4015 -0.1164,0.5277 -0.0776,0.1252 -0.1967,0.1879 -0.3571,0.1879 -0.1489,0 -0.2633,-0.0627 -0.343,-0.1879 -0.0785,-0.1262 -0.1179,-0.3021 -0.1179,-0.5277 0,-0.2255 0.0378,-0.3999 0.1133,-0.5231 0.0755,-0.1241 0.1915,-0.1862 0.3476,-0.1862zm0 0.1847c-0.0838,0 -0.1453,0.044 -0.1847,0.132 -0.0392,0.0869 -0.0589,0.2177 -0.0589,0.3926 0,0.1748 0.0197,0.3068 0.0589,0.3958 0.0394,0.089 0.1009,0.1334 0.1847,0.1334 0.0869,0 0.1517,-0.0444 0.1941,-0.1334 0.0424,-0.089 0.0636,-0.221 0.0636,-0.3958 0,-0.1739 -0.0212,-0.3047 -0.0636,-0.3926 -0.0414,-0.088 -0.1061,-0.132 -0.1941,-0.132zm1.4373 -0.152l-1.2588 2.2691 -0.2265 0 1.2587 -2.2691 0.2266 0zm-0.0605 0.8769c0.1541,0 0.2716,0.062 0.3523,0.1862 0.0807,0.1231 0.1211,0.2974 0.1211,0.5231 0,0.2244 -0.0389,0.3998 -0.1165,0.5261 -0.0776,0.1252 -0.1966,0.1878 -0.3569,0.1878 -0.15,0 -0.2644,-0.0626 -0.3431,-0.1878 -0.0786,-0.1263 -0.1179,-0.3017 -0.1179,-0.5261 0,-0.2257 0.0372,-0.4 0.1117,-0.5231 0.0756,-0.1242 0.1919,-0.1862 0.3493,-0.1862zm0 0.1862c-0.0839,0 -0.1454,0.0434 -0.1847,0.1303 -0.0393,0.087 -0.0591,0.2179 -0.0591,0.3928 0,0.1748 0.0198,0.3067 0.0591,0.3957 0.0393,0.0879 0.1008,0.132 0.1847,0.132 0.0869,0 0.1516,-0.0436 0.1939,-0.1305 0.0425,-0.0879 0.0637,-0.2203 0.0637,-0.3972 0,-0.1739 -0.0212,-0.3043 -0.0637,-0.3912 -0.0413,-0.088 -0.106,-0.1319 -0.1939,-0.1319zm2.9227 0.6022c0,0.1345 -0.0337,0.2494 -0.1009,0.3446 -0.0662,0.0941 -0.1594,0.1661 -0.2794,0.2157 -0.12,0.0497 -0.2613,0.0745 -0.4237,0.0745 -0.0859,0 -0.1671,-0.0041 -0.2437,-0.0124 -0.0766,-0.0083 -0.1469,-0.0202 -0.2111,-0.0358 -0.0641,-0.0155 -0.1205,-0.0346 -0.1692,-0.0573l0 -0.253c0.0776,0.032 0.1723,0.0621 0.2841,0.09 0.1117,0.0269 0.2286,0.0403 0.3508,0.0403 0.1138,0 0.21,-0.015 0.2886,-0.045 0.0787,-0.031 0.1382,-0.075 0.1785,-0.1319 0.0414,-0.0579 0.0621,-0.1273 0.0621,-0.208 0,-0.0776 -0.017,-0.1423 -0.0512,-0.194 -0.0341,-0.0528 -0.0911,-0.1003 -0.1708,-0.1428 -0.0786,-0.0434 -0.1862,-0.0895 -0.3227,-0.1381 -0.0964,-0.0342 -0.1812,-0.0714 -0.2546,-0.1118 -0.0735,-0.0413 -0.1351,-0.0879 -0.1848,-0.1396 -0.0496,-0.0518 -0.0874,-0.1118 -0.1132,-0.18 -0.0248,-0.0684 -0.0373,-0.1465 -0.0373,-0.2344 0,-0.1212 0.0306,-0.2246 0.0916,-0.3105 0.062,-0.0869 0.1474,-0.1531 0.2561,-0.1986 0.1097,-0.0467 0.2353,-0.0699 0.3772,-0.0699 0.121,0 0.2328,0.0114 0.3352,0.0342 0.1035,0.0227 0.1981,0.0532 0.284,0.0916l-0.0823 0.2265c-0.0817,-0.0341 -0.1686,-0.0625 -0.2607,-0.0853 -0.091,-0.0228 -0.1852,-0.0341 -0.2825,-0.0341 -0.0972,0 -0.1795,0.0144 -0.2467,0.0433 -0.0663,0.0281 -0.1169,0.0679 -0.1522,0.1196 -0.0351,0.0517 -0.0527,0.1133 -0.0527,0.1847 0,0.0797 0.0165,0.1459 0.0496,0.1987 0.0342,0.0528 0.088,0.0998 0.1614,0.1412 0.0746,0.0403 0.1729,0.0828 0.295,0.1272 0.1334,0.0487 0.2467,0.1004 0.3399,0.1553 0.0931,0.0538 0.1639,0.12 0.2126,0.1986 0.0487,0.0776 0.073,0.1764 0.073,0.2965zm1.6638 0.6038l-1.2634 0 0 -2.2691 1.2634 0 0 0.2327 -0.9995 0 0 0.7342 0.9421 0 0 0.2296 -0.9421 0 0 0.8397 0.9995 0 0 0.2329zm1.4094 -1.1889l0.7931 0 0 1.1004c-0.119,0.0403 -0.2417,0.0703 -0.3679,0.09 -0.1251,0.0197 -0.2653,0.0295 -0.4206,0.0295 -0.2359,0 -0.4351,-0.0471 -0.5975,-0.1413 -0.1615,-0.0941 -0.284,-0.2281 -0.3679,-0.4019 -0.0838,-0.1749 -0.1256,-0.3824 -0.1256,-0.6224 0,-0.2349 0.046,-0.4397 0.1381,-0.6146 0.0931,-0.1749 0.2271,-0.3105 0.402,-0.4067 0.1759,-0.0972 0.3869,-0.1459 0.6332,-0.1459 0.1263,0 0.2457,0.0119 0.3585,0.0358 0.1139,0.0227 0.2194,0.0553 0.3167,0.0977l-0.1009 0.2297c-0.0838,-0.0362 -0.1764,-0.0672 -0.2779,-0.0931 -0.1004,-0.0259 -0.2043,-0.0388 -0.3119,-0.0388 -0.1852,0 -0.3441,0.0382 -0.4765,0.1148 -0.1314,0.0766 -0.2323,0.1847 -0.3027,0.3244 -0.0693,0.1397 -0.1039,0.3052 -0.1039,0.4967 0,0.1893 0.0304,0.3544 0.0915,0.4951 0.0611,0.1397 0.1563,0.2483 0.2856,0.3259 0.1294,0.0776 0.2959,0.1164 0.4998,0.1164 0.1024,0 0.1904,-0.0057 0.2639,-0.0171 0.0734,-0.0124 0.1401,-0.0268 0.2001,-0.0434l0 -0.6953 -0.5292 0 0 -0.2359zm2.9955 -1.0802l0 1.4681c0,0.1604 -0.0326,0.3033 -0.0978,0.4284 -0.064,0.1253 -0.1613,0.2241 -0.2917,0.2965 -0.1303,0.0714 -0.2938,0.1071 -0.4905,0.1071 -0.2804,0 -0.494,-0.0761 -0.641,-0.2282 -0.1459,-0.152 -0.2188,-0.3554 -0.2188,-0.61l0 -1.4619 0.2654 0 0 1.4697c0,0.1925 0.0507,0.3409 0.1521,0.4455 0.1024,0.1045 0.255,0.1567 0.4579,0.1567 0.1386,0 0.2519,-0.0248 0.3398,-0.0744 0.089,-0.0508 0.1547,-0.1211 0.1972,-0.2112 0.0434,-0.091 0.0651,-0.196 0.0651,-0.3151l0 -1.4712 0.2623 0zm1.1518 0c0.1862,0 0.3399,0.0232 0.4609,0.0697 0.1221,0.0456 0.2131,0.1155 0.2732,0.2096 0.06,0.0942 0.09,0.2142 0.09,0.3601 0,0.12 -0.0217,0.2203 -0.0652,0.301 -0.0434,0.0797 -0.1004,0.1444 -0.1708,0.1941 -0.0702,0.0496 -0.1453,0.088 -0.2249,0.1148l0.6222 1.0198 -0.3071 0 -0.5557 -0.9468 -0.4718 0 0 0.9468 -0.2639 0 0 -2.2691 0.6131 0zm-0.0155 0.228l-0.3337 0 0 0.8708 0.36 0c0.1852,0 0.3213,-0.0377 0.4083,-0.1133 0.0879,-0.0756 0.1318,-0.1868 0.1318,-0.3337 0,-0.1542 -0.0465,-0.2634 -0.1397,-0.3275 -0.0921,-0.0641 -0.2343,-0.0963 -0.4267,-0.0963zm3.2686 0.9034c0,0.1749 -0.0222,0.3341 -0.0668,0.478 -0.0444,0.1428 -0.1107,0.2659 -0.1986,0.3694 -0.0869,0.1024 -0.195,0.1816 -0.3243,0.2375 -0.1295,0.0559 -0.2794,0.0838 -0.4503,0.0838 -0.1759,0 -0.3295,-0.0279 -0.4608,-0.0838 -0.1304,-0.0559 -0.239,-0.1356 -0.3259,-0.2391 -0.0858,-0.1034 -0.1507,-0.227 -0.1941,-0.3709 -0.0425,-0.1438 -0.0636,-0.3031 -0.0636,-0.478 0,-0.2318 0.0384,-0.4351 0.1149,-0.61 0.0766,-0.1748 0.1924,-0.3109 0.3475,-0.4082 0.1563,-0.0972 0.3518,-0.1459 0.5868,-0.1459 0.2247,0 0.4135,0.0482 0.5666,0.1444 0.1541,0.0962 0.2705,0.2317 0.3492,0.4067 0.0797,0.1737 0.1194,0.3791 0.1194,0.6161zm-1.8066 0c0,0.1924 0.0274,0.359 0.0824,0.4997 0.0549,0.1408 0.1386,0.2494 0.2514,0.326 0.1136,0.0765 0.258,0.1148 0.4328,0.1148 0.1762,0 0.32,-0.0383 0.4315,-0.1148 0.1129,-0.0766 0.1963,-0.1852 0.2501,-0.326 0.0538,-0.1407 0.0805,-0.3073 0.0805,-0.4997 0,-0.2929 -0.0614,-0.5215 -0.1846,-0.686 -0.1221,-0.1656 -0.3128,-0.2484 -0.5727,-0.2484 -0.1759,0 -0.3207,0.0378 -0.4347,0.1133 -0.1136,0.0756 -0.1986,0.1832 -0.2543,0.3229 -0.055,0.1386 -0.0824,0.3046 -0.0824,0.4982z"/>
   <path id="_351203296" class="fil0" d="M7.0266 1.2082c-0.6295,-0.12 -1.4621,-0.3154 -2.2209,-0.9356 -0.1616,-0.1323 -0.3956,-0.1323 -0.5572,0 -0.7587,0.6186 -1.5914,0.8156 -2.2209,0.9356 -0.2108,0.04 -0.3647,0.2247 -0.3647,0.4386l0 1.7219c0,1.8389 1.7838,2.7807 2.5349,3.0962 0.2108,0.0877 0.4463,0.0877 0.6571,0 0.7527,-0.3155 2.5365,-1.2558 2.5365,-3.0962l0 -1.7219c0,-0.2154 -0.1524,-0.3986 -0.3648,-0.4386zm-1.2066 1.5743l-1.4237 1.4418c-0.0446,0.0462 -0.1046,0.0693 -0.1647,0.0693 -0.06,0 -0.1169,-0.0215 -0.1616,-0.0662l-0.751 -0.7386c-0.0908,-0.0892 -0.0924,-0.2355 -0.0031,-0.3263 0.0892,-0.0907 0.2354,-0.0923 0.3262,-0.003l0.5864 0.5771 1.2606 -1.2788c0.0892,-0.0908 0.2354,-0.0923 0.3262,-0.0016 0.0908,0.0893 0.0924,0.2355 0.0015,0.3263l0.0032 0z"/>
  </g>
 </g>
</svg>
