<?xml version="1.0" encoding="UTF-8"?>
<!DOCTYPE svg PUBLIC "-//W3C//DTD SVG 1.1//EN" "http://www.w3.org/Graphics/SVG/1.1/DTD/svg11.dtd">
<!-- Creator: CorelDRAW -->
<svg xmlns="http://www.w3.org/2000/svg" xml:space="preserve" width="63mm" height="63mm" style="shape-rendering:geometricPrecision; text-rendering:geometricPrecision; image-rendering:optimizeQuality; fill-rule:evenodd; clip-rule:evenodd"
viewBox="0 0 63 63">
 <defs>
  <style type="text/css">
   <![CDATA[
    .fil2 {fill:#005397}
    .fil1 {fill:#00973F}
    .fil0 {fill:#E77817;fill-opacity:0.000000}
   ]]>
  </style>
 </defs>
 <g id="Camada_x0020_1">
  <metadata id="CorelCorpID_0Corel-Layer"/>
  <polygon class="fil0" points="57.9581,25.0603 5.0419,25.0603 5.0419,37.9397 57.9581,37.9397 "/>
  <g id="_196178184">
   <path id="_196177680" class="fil1" d="M12.2846 3.8696c-0.8736,12.5541 -2.7002,25.2711 11.6836,35.2018 -0.152,-7.8762 -0.6624,-15.7527 4.9072,-23.6286 -2.551,-6.9321 -8.4322,-10.4283 -16.5908,-11.5732z"/>
   <path id="_196176888" class="fil2" d="M51.953 4.9726c-15.2016,5.628 -25.4088,14.8011 -21.9092,36.5099 10.4852,3.3105 28.1248,-18.3503 21.9092,-36.5099z"/>
   <path id="_196176744" class="fil2" d="M55.1373 46.8611c-5.5444,8.6137 -16.1154,13.6104 -27.5862,11.9542 -15.8099,-2.2826 -27.3457,-16.3359 -25.7618,-31.384 0.6372,-6.054 3.303,-11.3472 7.2891,-15.3641 -2.0977,3.2585 -3.478,7.034 -3.9127,11.1641 -1.5839,15.0476 9.9523,29.1014 25.7616,31.384 9.4492,1.3642 18.2881,-1.7865 24.21,-7.7542z"/>
   <path id="_196176672" class="fil1" d="M60.9017 19.1217c0.2972,1.6203 0.4543,3.2919 0.4543,5.0013 0,14.7781 -11.6151,26.7628 -25.938,26.7628 -9.7736,0 -18.2845,-5.5823 -22.7062,-13.8233 5.1421,4.9826 12.0595,8.0369 19.6684,8.0369 14.6641,0 26.7646,-11.3376 28.5215,-25.9777z"/>
  </g>
 </g>
</svg>
