<?xml version="1.0" encoding="UTF-8"?>
<!DOCTYPE svg PUBLIC "-//W3C//DTD SVG 1.1//EN" "http://www.w3.org/Graphics/SVG/1.1/DTD/svg11.dtd">
<!-- Creator: CorelDRAW -->
<svg xmlns="http://www.w3.org/2000/svg" xml:space="preserve" width="60mm" height="14mm" style="shape-rendering:geometricPrecision; text-rendering:geometricPrecision; image-rendering:optimizeQuality; fill-rule:evenodd; clip-rule:evenodd"
viewBox="0 0 60 14">
 <defs>
  <style type="text/css">
   <![CDATA[
    .fil5 {fill:none}
    .fil1 {fill:#005397}
    .fil0 {fill:#00973F}
    .fil2 {fill:#1F1A17;fill-rule:nonzero}
    .fil3 {fill:#005397;fill-rule:nonzero}
    .fil4 {fill:#00973F;fill-rule:nonzero}
   ]]>
  </style>
   <clipPath id="id0">
    <path d="M0 0l60 0 0 14 -60 0 0 -14z"/>
   </clipPath>
 </defs>
 <g id="Camada_x0020_1">
  <metadata id="CorelCorpID_0Corel-Layer"/>
  <g>
  </g>
  <g style="clip-path:url(#id0)">
   <g>
    <g id="_218984544">
     <path id="_218983464" class="fil0" d="M3.1088 0.5387c-0.1826,2.6241 -0.5644,5.2822 2.4422,7.358 -0.0318,-1.6463 -0.1385,-3.2927 1.0257,-4.9389 -0.5332,-1.449 -1.7625,-2.1798 -3.4679,-2.4191z"/>
     <path id="_218982528" class="fil1" d="M11.4004 0.7693c-3.1774,1.1764 -5.311,3.0937 -4.5795,7.6314 2.1917,0.6919 5.8787,-3.8357 4.5795,-7.6314z"/>
     <path id="_218982384" class="fil1" d="M12.066 9.5249c-1.1589,1.8004 -3.3685,2.8449 -5.7661,2.4987 -3.3046,-0.4771 -5.7159,-3.4146 -5.3848,-6.56 0.1332,-1.2654 0.6904,-2.3718 1.5236,-3.2114 -0.4385,0.6811 -0.727,1.4703 -0.8179,2.3335 -0.331,3.1453 2.0803,6.0829 5.3848,6.56 1.9751,0.2852 3.8226,-0.3734 5.0604,-1.6208z"/>
     <path id="_218983032" class="fil0" d="M13.2709 3.7267c0.0621,0.3387 0.095,0.6881 0.095,1.0454 0,3.089 -2.4279,5.594 -5.4217,5.594 -2.0429,0 -3.8218,-1.1668 -4.7461,-2.8893 1.0749,1.0414 2.5207,1.6799 4.1112,1.6799 3.0651,0 5.5944,-2.3698 5.9616,-5.43z"/>
     <g>
      <path id="_218983224" class="fil2" d="M16.2578 11.9616c0.055,-0.1856 0.1233,-0.3852 0.2044,-0.5986l0.4317 -1.1302 0.6438 0 0 2.3629 -0.4579 0 0 -1.1971c0,-0.1754 0.007,-0.3791 0.0223,-0.6112l-0.0172 0c-0.0211,0.0669 -0.046,0.1423 -0.0748,0.226 -0.0287,0.0838 -0.0587,0.1658 -0.09,0.2472l-0.5179 1.3351 -0.2957 0 -0.5179 -1.3351c-0.0313,-0.0814 -0.0614,-0.1634 -0.0901,-0.2472 -0.0287,-0.0837 -0.0536,-0.1591 -0.0747,-0.226l-0.0172 0c0.0153,0.2176 0.0229,0.4207 0.0229,0.6094l0 1.1989 -0.4585 0 0 -2.3629 0.6399 0 0.4317 1.1248c0.0728,0.1875 0.1405,0.3888 0.2044,0.604l0.0108 0zm2.8892 0.4521l-0.0077 0c-0.0249,0.0247 -0.0549,0.05 -0.09,0.0759 -0.0345,0.026 -0.0747,0.0507 -0.1194,0.0736 -0.0447,0.0229 -0.0945,0.0416 -0.1495,0.0554 -0.0549,0.0145 -0.1143,0.0211 -0.1781,0.0211 -0.0863,0 -0.1661,-0.0126 -0.2414,-0.0379 -0.0748,-0.0254 -0.1386,-0.0615 -0.1923,-0.1091 -0.0536,-0.0477 -0.0958,-0.1055 -0.1264,-0.1736 -0.0307,-0.0676 -0.046,-0.1429 -0.046,-0.2267 0,-0.0916 0.0179,-0.1742 0.0537,-0.2471 0.0351,-0.073 0.0849,-0.135 0.1481,-0.1857 0.0639,-0.0506 0.1399,-0.0892 0.2286,-0.1157 0.0888,-0.0265 0.1865,-0.0398 0.2938,-0.0398 0.0786,0 0.1507,0.0048 0.2171,0.0145 0.0658,0.0096 0.1239,0.0205 0.1738,0.0337l0 -0.0693c0,-0.0398 -0.0071,-0.0783 -0.0218,-0.1157 -0.014,-0.0368 -0.037,-0.0699 -0.0689,-0.0989 -0.032,-0.0289 -0.0735,-0.0518 -0.1246,-0.0687 -0.0511,-0.0169 -0.1136,-0.0253 -0.1871,-0.0253 -0.0894,0 -0.1795,0.009 -0.2695,0.0277 -0.0894,0.0193 -0.1871,0.0476 -0.2918,0.085l0 -0.3267c0.0913,-0.0374 0.1877,-0.0663 0.2899,-0.0862 0.1028,-0.0205 0.2101,-0.0307 0.3219,-0.0319 0.1322,0 0.2484,0.015 0.3474,0.0458 0.099,0.0307 0.182,0.0729 0.2484,0.1259 0.0671,0.0537 0.1169,0.117 0.1501,0.1899 0.0332,0.0729 0.0492,0.1525 0.0492,0.2387l0 0.6444c0,0.1133 0.0012,0.2104 0.0038,0.2917 0.0025,0.0808 0.0051,0.1537 0.0077,0.217l-0.4005 0 -0.0185 -0.182zm-0.0357 -0.5473c-0.0422,-0.0097 -0.0907,-0.0181 -0.1457,-0.0253 -0.0549,-0.0079 -0.1105,-0.0115 -0.1666,-0.0115 -0.1086,0 -0.1942,0.0199 -0.2574,0.0609 -0.0632,0.0404 -0.0945,0.1025 -0.0945,0.1862 0,0.0386 0.007,0.0724 0.0217,0.1013 0.014,0.0289 0.0338,0.0531 0.0581,0.0717 0.0243,0.0187 0.0524,0.0326 0.0849,0.0422 0.0326,0.0097 0.0665,0.0145 0.1029,0.0145 0.0447,0 0.0875,-0.006 0.127,-0.0169 0.0403,-0.0114 0.0767,-0.0253 0.1105,-0.0428 0.0339,-0.0169 0.0639,-0.0362 0.0907,-0.0572 0.0268,-0.0211 0.0498,-0.0416 0.0684,-0.0615l0 -0.2616zm1.3494 -0.7433l0.007 0c0.0262,-0.0355 0.0594,-0.0705 0.0996,-0.1042 0.0396,-0.0344 0.085,-0.0645 0.136,-0.0904 0.0511,-0.026 0.108,-0.0465 0.1699,-0.0627 0.0613,-0.0157 0.1271,-0.0235 0.1974,-0.0235 0.0657,0 0.1296,0.0072 0.1916,0.021 0.0619,0.0139 0.1181,0.0362 0.1692,0.0664 0.0511,0.0301 0.0964,0.0687 0.1354,0.1163 0.0396,0.0476 0.0702,0.1049 0.0926,0.1706 0.0127,0.0361 0.0211,0.0759 0.0255,0.1193 0.0045,0.0428 0.0064,0.0923 0.0064,0.1489l0 1.1109 -0.4432 0 0 -1.0452c0,-0.0464 -0.0019,-0.0856 -0.0058,-0.1187 -0.0038,-0.0326 -0.0102,-0.0615 -0.0204,-0.0862 -0.0223,-0.0543 -0.0562,-0.0935 -0.1022,-0.117 -0.0453,-0.0235 -0.1002,-0.0349 -0.1654,-0.0349 -0.0862,0 -0.1686,0.0193 -0.2478,0.0572 -0.0791,0.0386 -0.1494,0.0941 -0.2107,0.167l0 1.1778 -0.4432 0 0 -1.7113 0.3666 0 0.0415 0.2387zm1.7281 -0.2387l0.4438 0 0 1.7113 -0.4438 0 0 -1.7113zm-0.0109 -0.8456l0.4656 0 0 0.4538 -0.4656 0 0 -0.4538zm1.8016 1.1386c-0.0773,0.0012 -0.1507,0.0193 -0.221,0.0542 -0.0696,0.0344 -0.1315,0.0814 -0.1852,0.1405l0 0.7625c0.0185,0.0205 0.0416,0.0404 0.0677,0.0603 0.0262,0.0199 0.0556,0.038 0.0875,0.0548 0.0326,0.0163 0.0683,0.0302 0.108,0.0404 0.0389,0.0109 0.0798,0.0163 0.1226,0.0163 0.0683,0 0.1296,-0.0139 0.1833,-0.0416 0.0536,-0.0277 0.0983,-0.0669 0.1334,-0.1175 0.0358,-0.0507 0.0626,-0.1109 0.0818,-0.1809 0.0185,-0.0705 0.0281,-0.1483 0.0281,-0.2345 0,-0.0916 -0.0096,-0.1723 -0.0294,-0.2417 -0.0192,-0.0693 -0.0466,-0.1272 -0.0824,-0.173 -0.0351,-0.0458 -0.0779,-0.0807 -0.1277,-0.1042 -0.0498,-0.0236 -0.1054,-0.0356 -0.1667,-0.0356zm0.0581 1.4623c-0.0977,0 -0.1858,-0.0169 -0.265,-0.05 -0.0792,-0.0338 -0.145,-0.0753 -0.1974,-0.1248l-0.0076 0c0.0013,0.0235 0.0025,0.0567 0.0038,0.1001 0.0013,0.0428 0.0019,0.0898 0.0019,0.1404l0 0.7113 -0.4432 0 0 -2.5323 0.389 0 0.0191 0.1923 0.007 0c0.055,-0.0681 0.1258,-0.1241 0.2114,-0.1681 0.0862,-0.0446 0.1859,-0.0663 0.2995,-0.0663 0.0984,0 0.1955,0.0174 0.2912,0.0518 0.0952,0.0349 0.1795,0.088 0.2536,0.1597 0.0734,0.0724 0.1322,0.1628 0.1762,0.2725 0.0448,0.1091 0.0665,0.2393 0.0665,0.39 0,0.1591 -0.0237,0.2966 -0.0709,0.4123 -0.0473,0.1157 -0.1099,0.2122 -0.1871,0.2881 -0.0773,0.076 -0.1629,0.132 -0.2574,0.1682 -0.0939,0.0367 -0.191,0.0548 -0.2906,0.0548zm2.0002 0c-0.182,0 -0.3334,-0.0289 -0.4528,-0.0874 -0.12,-0.0578 -0.2101,-0.1368 -0.2714,-0.2357 -0.0326,-0.053 -0.0562,-0.1109 -0.0722,-0.1748 -0.0153,-0.0633 -0.023,-0.1344 -0.023,-0.2121l0 -1.0453 0.4433 0 0 1.0013c0,0.0578 0.0044,0.1073 0.0127,0.1495 0.009,0.0415 0.0224,0.0777 0.0396,0.1085 0.03,0.0518 0.0722,0.0904 0.1271,0.1157 0.0549,0.0253 0.1207,0.038 0.1967,0.038 0.0798,0 0.1482,-0.0145 0.205,-0.0422 0.0562,-0.0284 0.099,-0.0718 0.1277,-0.129 0.0288,-0.0555 0.0435,-0.1327 0.0435,-0.2315l0 -1.0103 0.4432 0 0 1.0453c0,0.1392 -0.0256,0.2561 -0.0767,0.352 -0.0287,0.0536 -0.0658,0.1031 -0.1111,0.1471 -0.046,0.044 -0.0996,0.0819 -0.1609,0.1133 -0.062,0.0307 -0.1316,0.0548 -0.2101,0.0723 -0.0779,0.0169 -0.1648,0.0253 -0.2606,0.0253zm1.306 -0.044l0 -2.5569 0.4438 0 0 2.5569 -0.4438 0zm2.0155 -0.182l-0.0077 0c-0.0249,0.0247 -0.0549,0.05 -0.09,0.0759 -0.0345,0.026 -0.0747,0.0507 -0.1194,0.0736 -0.0447,0.0229 -0.0945,0.0416 -0.1495,0.0554 -0.0549,0.0145 -0.1143,0.0211 -0.1781,0.0211 -0.0863,0 -0.1661,-0.0126 -0.2414,-0.0379 -0.0748,-0.0254 -0.1386,-0.0615 -0.1923,-0.1091 -0.0536,-0.0477 -0.0958,-0.1055 -0.1264,-0.1736 -0.0307,-0.0676 -0.046,-0.1429 -0.046,-0.2267 0,-0.0916 0.0179,-0.1742 0.0537,-0.2471 0.0351,-0.073 0.0849,-0.135 0.1481,-0.1857 0.0639,-0.0506 0.1399,-0.0892 0.2286,-0.1157 0.0888,-0.0265 0.1865,-0.0398 0.2938,-0.0398 0.0786,0 0.1507,0.0048 0.2171,0.0145 0.0658,0.0096 0.1239,0.0205 0.1738,0.0337l0 -0.0693c0,-0.0398 -0.0071,-0.0783 -0.0218,-0.1157 -0.014,-0.0368 -0.037,-0.0699 -0.0689,-0.0989 -0.032,-0.0289 -0.0735,-0.0518 -0.1246,-0.0687 -0.0511,-0.0169 -0.1136,-0.0253 -0.1871,-0.0253 -0.0894,0 -0.1795,0.009 -0.2695,0.0277 -0.0894,0.0193 -0.1871,0.0476 -0.2918,0.085l0 -0.3267c0.0913,-0.0374 0.1877,-0.0663 0.2899,-0.0862 0.1028,-0.0205 0.2101,-0.0307 0.3219,-0.0319 0.1322,0 0.2484,0.015 0.3474,0.0458 0.099,0.0307 0.182,0.0729 0.2484,0.1259 0.0671,0.0537 0.1169,0.117 0.1501,0.1899 0.0332,0.0729 0.0492,0.1525 0.0492,0.2387l0 0.6444c0,0.1133 0.0012,0.2104 0.0038,0.2917 0.0025,0.0808 0.0051,0.1537 0.0077,0.217l-0.4005 0 -0.0185 -0.182zm-0.0357 -0.5473c-0.0422,-0.0097 -0.0907,-0.0181 -0.1457,-0.0253 -0.0549,-0.0079 -0.1105,-0.0115 -0.1666,-0.0115 -0.1086,0 -0.1942,0.0199 -0.2574,0.0609 -0.0632,0.0404 -0.0945,0.1025 -0.0945,0.1862 0,0.0386 0.007,0.0724 0.0217,0.1013 0.014,0.0289 0.0338,0.0531 0.0581,0.0717 0.0243,0.0187 0.0524,0.0326 0.0849,0.0422 0.0326,0.0097 0.0665,0.0145 0.1029,0.0145 0.0447,0 0.0875,-0.006 0.127,-0.0169 0.0403,-0.0114 0.0767,-0.0253 0.1105,-0.0428 0.0339,-0.0169 0.0639,-0.0362 0.0907,-0.0572 0.0268,-0.0211 0.0498,-0.0416 0.0684,-0.0615l0 -0.2616zm1.4822 0.7384c-0.0926,-0.0235 -0.1775,-0.0585 -0.2555,-0.1037 -0.0779,-0.0452 -0.1449,-0.1025 -0.2011,-0.1718 -0.0562,-0.0699 -0.1003,-0.1513 -0.1309,-0.2447 -0.0313,-0.0935 -0.0473,-0.1996 -0.0473,-0.3171 0,-0.167 0.0287,-0.3092 0.0856,-0.4268 0.0568,-0.1169 0.1296,-0.2127 0.2197,-0.2869 0.09,-0.0741 0.1896,-0.1278 0.3001,-0.1615 0.1105,-0.0332 0.2197,-0.05 0.3283,-0.05 0.0811,0 0.159,0.0066 0.2344,0.0204 0.0747,0.0133 0.1424,0.032 0.2037,0.0555l0 0.3406c-0.0549,-0.0223 -0.1131,-0.0404 -0.175,-0.0537 -0.062,-0.0138 -0.1284,-0.0205 -0.1993,-0.0205 -0.0709,0 -0.1392,0.0103 -0.2037,0.0302 -0.0651,0.0199 -0.122,0.0524 -0.1711,0.0982 -0.0498,0.0452 -0.0894,0.1037 -0.1195,0.1766 -0.0293,0.0724 -0.0447,0.1616 -0.0447,0.2671 0,0.0753 0.0109,0.1464 0.0326,0.2121 0.0224,0.0657 0.0549,0.123 0.0996,0.1712 0.0441,0.0483 0.0997,0.0868 0.1661,0.1152 0.067,0.0277 0.1449,0.0422 0.235,0.0422 0.0798,0 0.1539,-0.0079 0.2229,-0.0241 0.0683,-0.0157 0.1303,-0.0344 0.1852,-0.0555l0 0.3406c-0.0537,0.0217 -0.1207,0.0403 -0.2012,0.0566 -0.0805,0.0169 -0.1673,0.0247 -0.2612,0.0247l-0.0358 0 -0.0446 0.1646c0.0498,0.0066 0.0964,0.0181 0.1385,0.0343 0.0422,0.0157 0.0792,0.0362 0.1105,0.0615 0.0313,0.0254 0.0556,0.0549 0.0728,0.0886 0.0173,0.0338 0.0262,0.0712 0.0262,0.1122 0,0.0494 -0.0121,0.0958 -0.0364,0.1386 -0.0243,0.0428 -0.0607,0.0814 -0.1092,0.1145 -0.0492,0.0338 -0.1105,0.0597 -0.1846,0.079 -0.0741,0.0187 -0.1577,0.0283 -0.2497,0.0283 -0.0472,0 -0.0964,-0.0036 -0.1469,-0.0102 -0.0504,-0.0061 -0.0887,-0.0139 -0.1149,-0.0235l0 -0.258c0.0332,0.0096 0.0728,0.0168 0.1169,0.0223 0.044,0.0054 0.0849,0.0078 0.1226,0.0078 0.046,0 0.0862,-0.0036 0.1207,-0.0108 0.0338,-0.0067 0.0606,-0.0157 0.0792,-0.0272 0.0191,-0.0114 0.0319,-0.0235 0.0396,-0.0361 0.007,-0.0133 0.0108,-0.0259 0.0108,-0.0392 0,-0.0362 -0.0268,-0.0633 -0.0811,-0.0808 -0.0543,-0.0181 -0.1392,-0.0277 -0.2554,-0.0301l0.1181 -0.3707zm2.2154 -0.1911l-0.0077 0c-0.0249,0.0247 -0.0549,0.05 -0.09,0.0759 -0.0345,0.026 -0.0747,0.0507 -0.1194,0.0736 -0.0447,0.0229 -0.0945,0.0416 -0.1495,0.0554 -0.0549,0.0145 -0.1143,0.0211 -0.1781,0.0211 -0.0863,0 -0.1661,-0.0126 -0.2414,-0.0379 -0.0748,-0.0254 -0.1386,-0.0615 -0.1923,-0.1091 -0.0536,-0.0477 -0.0958,-0.1055 -0.1264,-0.1736 -0.0307,-0.0676 -0.046,-0.1429 -0.046,-0.2267 0,-0.0916 0.0179,-0.1742 0.0537,-0.2471 0.0351,-0.073 0.0849,-0.135 0.1481,-0.1857 0.0639,-0.0506 0.1399,-0.0892 0.2286,-0.1157 0.0888,-0.0265 0.1865,-0.0398 0.2938,-0.0398 0.0786,0 0.1507,0.0048 0.2171,0.0145 0.0658,0.0096 0.1239,0.0205 0.1738,0.0337l0 -0.0693c0,-0.0398 -0.0071,-0.0783 -0.0218,-0.1157 -0.014,-0.0368 -0.037,-0.0699 -0.0689,-0.0989 -0.032,-0.0289 -0.0735,-0.0518 -0.1246,-0.0687 -0.0511,-0.0169 -0.1136,-0.0253 -0.1871,-0.0253 -0.0894,0 -0.1795,0.009 -0.2695,0.0277 -0.0894,0.0193 -0.1871,0.0476 -0.2918,0.085l0 -0.3267c0.0913,-0.0374 0.1877,-0.0663 0.2899,-0.0862 0.1028,-0.0205 0.2101,-0.0307 0.3219,-0.0319 0.1322,0 0.2484,0.015 0.3474,0.0458 0.099,0.0307 0.182,0.0729 0.2484,0.1259 0.0671,0.0537 0.1169,0.117 0.1501,0.1899 0.0332,0.0729 0.0492,0.1525 0.0492,0.2387l0 0.6444c0,0.1133 0.0012,0.2104 0.0038,0.2917 0.0025,0.0808 0.0051,0.1537 0.0077,0.217l-0.4005 0 -0.0185 -0.182zm-0.0357 -0.5473c-0.0422,-0.0097 -0.0907,-0.0181 -0.1457,-0.0253 -0.0549,-0.0079 -0.1105,-0.0115 -0.1666,-0.0115 -0.1086,0 -0.1942,0.0199 -0.2574,0.0609 -0.0632,0.0404 -0.0945,0.1025 -0.0945,0.1862 0,0.0386 0.007,0.0724 0.0217,0.1013 0.014,0.0289 0.0338,0.0531 0.0581,0.0717 0.0243,0.0187 0.0524,0.0326 0.0849,0.0422 0.0326,0.0097 0.0665,0.0145 0.1029,0.0145 0.0447,0 0.0875,-0.006 0.127,-0.0169 0.0403,-0.0114 0.0767,-0.0253 0.1105,-0.0428 0.0339,-0.0169 0.0639,-0.0362 0.0907,-0.0572 0.0268,-0.0211 0.0498,-0.0416 0.0684,-0.0615l0 -0.2616zm-0.5876 -1.7535c0.0511,0 0.0996,0.0078 0.1463,0.0235 0.0459,0.0163 0.0894,0.0344 0.1309,0.0543 0.0434,0.0211 0.0843,0.0403 0.1213,0.0578 0.0377,0.0181 0.0709,0.0265 0.099,0.0265 0.0351,0 0.06,-0.0108 0.0741,-0.0331 0.0147,-0.0223 0.0217,-0.0609 0.0217,-0.1151l0.2938 0c0.0013,0.0156 0.0019,0.0373 0.0019,0.0657 0,0.0337 -0.0051,0.0747 -0.0154,0.1223 -0.0095,0.0476 -0.0287,0.0898 -0.0561,0.1266 -0.0275,0.0362 -0.0633,0.0651 -0.1073,0.0862 -0.0441,0.0211 -0.0965,0.032 -0.1565,0.032 -0.0485,0 -0.0964,-0.0079 -0.1431,-0.0236 -0.0466,-0.0162 -0.0919,-0.0349 -0.1353,-0.056 -0.046,-0.0223 -0.0882,-0.0416 -0.1252,-0.0579 -0.0377,-0.0169 -0.069,-0.0247 -0.0939,-0.0247 -0.0351,0 -0.0594,0.0108 -0.0741,0.0331 -0.014,0.0224 -0.021,0.0609 -0.021,0.1152l-0.2938 0c-0.0013,-0.0235 -0.0019,-0.0392 -0.0019,-0.0464 0,-0.0507 0.0044,-0.0977 0.014,-0.1417 0.0089,-0.0446 0.0281,-0.0856 0.0562,-0.1235 0.0281,-0.0386 0.0639,-0.0682 0.1086,-0.0893 0.044,-0.0217 0.0958,-0.0319 0.1558,-0.0319zm2.7991 1.6281c0,-0.0904 -0.0108,-0.1706 -0.0338,-0.2399 -0.0224,-0.0699 -0.0537,-0.1278 -0.0933,-0.1748 -0.0402,-0.0476 -0.0881,-0.0826 -0.1443,-0.1061 -0.0562,-0.0235 -0.1169,-0.0356 -0.1833,-0.0356 -0.0645,0 -0.1252,0.0121 -0.1807,0.0356 -0.0549,0.0235 -0.1028,0.0585 -0.1431,0.1061 -0.0396,0.047 -0.0709,0.1049 -0.0932,0.1748 -0.0224,0.0693 -0.0339,0.1495 -0.0339,0.2399 0,0.0904 0.0115,0.1706 0.0339,0.2399 0.0223,0.0699 0.0536,0.1278 0.0945,0.1742 0.0402,0.0464 0.0888,0.082 0.1437,0.1061 0.0556,0.0241 0.1169,0.0362 0.1826,0.0362 0.0665,0 0.1265,-0.0121 0.1814,-0.0362 0.0549,-0.0241 0.1022,-0.0597 0.1424,-0.1061 0.0396,-0.0464 0.0709,-0.1043 0.0933,-0.1742 0.023,-0.0693 0.0338,-0.1495 0.0338,-0.2399zm0.4586 0c0,0.1344 -0.0211,0.2568 -0.0639,0.3671 -0.0422,0.1109 -0.1028,0.2055 -0.182,0.2845 -0.0792,0.079 -0.175,0.1398 -0.2874,0.1826 -0.1124,0.0434 -0.2376,0.0645 -0.3762,0.0645 -0.1424,0 -0.2694,-0.0211 -0.3825,-0.0645 -0.113,-0.0428 -0.2088,-0.1036 -0.2874,-0.1826 -0.0785,-0.079 -0.1385,-0.1736 -0.1801,-0.2845 -0.0421,-0.1103 -0.0632,-0.2327 -0.0632,-0.3671 0,-0.1344 0.0217,-0.2568 0.0639,-0.3671 0.0421,-0.1109 0.1034,-0.2056 0.1826,-0.2845 0.0792,-0.079 0.175,-0.1398 0.2868,-0.1827 0.1124,-0.0434 0.2375,-0.0644 0.3761,-0.0644 0.1424,0 0.2702,0.021 0.3826,0.0644 0.113,0.0429 0.2088,0.1037 0.2873,0.1827 0.0786,0.0789 0.1386,0.1736 0.1808,0.2845 0.0415,0.1103 0.0626,0.2327 0.0626,0.3671zm1.6968 0.8547l-0.4586 0 0 -2.3629 1.5941 0 0 0.3623 -1.1355 0 0 0.6106 0.9707 0 0 0.3623 -0.9707 0 0 1.0277zm2.5481 -0.182l-0.0077 0c-0.0249,0.0247 -0.0549,0.05 -0.09,0.0759 -0.0345,0.026 -0.0747,0.0507 -0.1194,0.0736 -0.0447,0.0229 -0.0946,0.0416 -0.1495,0.0554 -0.0549,0.0145 -0.1143,0.0211 -0.1782,0.0211 -0.0862,0 -0.166,-0.0126 -0.2414,-0.0379 -0.0747,-0.0254 -0.1385,-0.0615 -0.1922,-0.1091 -0.0536,-0.0477 -0.0958,-0.1055 -0.1264,-0.1736 -0.0307,-0.0676 -0.046,-0.1429 -0.046,-0.2267 0,-0.0916 0.0179,-0.1742 0.0536,-0.2471 0.0352,-0.073 0.085,-0.135 0.1482,-0.1857 0.0639,-0.0506 0.1399,-0.0892 0.2286,-0.1157 0.0888,-0.0265 0.1865,-0.0398 0.2938,-0.0398 0.0785,0 0.1507,0.0048 0.2171,0.0145 0.0658,0.0096 0.1239,0.0205 0.1737,0.0337l0 -0.0693c0,-0.0398 -0.007,-0.0783 -0.0217,-0.1157 -0.014,-0.0368 -0.037,-0.0699 -0.069,-0.0989 -0.0319,-0.0289 -0.0734,-0.0518 -0.1245,-0.0687 -0.0511,-0.0169 -0.1137,-0.0253 -0.1871,-0.0253 -0.0894,0 -0.1795,0.009 -0.2695,0.0277 -0.0894,0.0193 -0.1871,0.0476 -0.2919,0.085l0 -0.3267c0.0914,-0.0374 0.1878,-0.0663 0.29,-0.0862 0.1028,-0.0205 0.2101,-0.0307 0.3219,-0.0319 0.1321,0 0.2484,0.015 0.3474,0.0458 0.0989,0.0307 0.182,0.0729 0.2484,0.1259 0.067,0.0537 0.1168,0.117 0.1501,0.1899 0.0332,0.0729 0.0491,0.1525 0.0491,0.2387l0 0.6444c0,0.1133 0.0013,0.2104 0.0039,0.2917 0.0025,0.0808 0.0051,0.1537 0.0076,0.217l-0.4004 0 -0.0185 -0.182zm-0.0358 -0.5473c-0.0421,-0.0097 -0.0907,-0.0181 -0.1456,-0.0253 -0.0549,-0.0079 -0.1105,-0.0115 -0.1667,-0.0115 -0.1085,0 -0.1941,0.0199 -0.2573,0.0609 -0.0633,0.0404 -0.0945,0.1025 -0.0945,0.1862 0,0.0386 0.007,0.0724 0.0217,0.1013 0.014,0.0289 0.0338,0.0531 0.0581,0.0717 0.0243,0.0187 0.0524,0.0326 0.0849,0.0422 0.0326,0.0097 0.0664,0.0145 0.1028,0.0145 0.0448,0 0.0875,-0.006 0.1271,-0.0169 0.0403,-0.0114 0.0767,-0.0253 0.1105,-0.0428 0.0339,-0.0169 0.0639,-0.0362 0.0907,-0.0572 0.0268,-0.0211 0.0498,-0.0416 0.0683,-0.0615l0 -0.2616zm2.0187 -0.6498l-0.037 0c-0.136,0 -0.2555,0.0193 -0.3583,0.0572 -0.1028,0.0386 -0.1826,0.0971 -0.2388,0.1761l0 1.1458 -0.4432 0 0 -1.7113 0.3665 0 0.0416 0.2387 0.007 0c0.0523,-0.0873 0.1245,-0.1561 0.2165,-0.2061 0.0913,-0.05 0.2018,-0.0747 0.3301,-0.0747 0.0447,0 0.0837,0.0024 0.1156,0.0072l0 0.3671zm2.5973 0.3369c0,-0.0361 -0.0012,-0.0705 -0.0038,-0.1018 -0.0026,-0.032 -0.0064,-0.0597 -0.0128,-0.0832 -0.014,-0.0519 -0.0408,-0.0934 -0.0804,-0.1254 -0.0403,-0.0319 -0.0965,-0.0482 -0.1686,-0.0494 -0.0384,0 -0.0786,0.0054 -0.1195,0.0156 -0.0415,0.0109 -0.0823,0.026 -0.1226,0.0452 -0.0409,0.0193 -0.0792,0.0429 -0.1162,0.0706 -0.037,0.0277 -0.0702,0.0585 -0.1003,0.0928l0 1.1778 -0.4432 0 0 -1.0422c0,-0.0361 -0.0013,-0.0705 -0.0038,-0.1018 -0.0026,-0.032 -0.007,-0.0597 -0.0128,-0.0832 -0.014,-0.0519 -0.0402,-0.0934 -0.0798,-0.1254 -0.039,-0.0319 -0.0958,-0.0482 -0.1692,-0.0494 -0.039,0 -0.0786,0.0054 -0.1201,0.0156 -0.0409,0.0109 -0.0818,0.026 -0.122,0.0452 -0.0409,0.0193 -0.0792,0.0429 -0.1162,0.0706 -0.0371,0.0277 -0.0703,0.0585 -0.1003,0.0928l0 1.1778 -0.4432 0 0 -1.7113 0.3666 0 0.0415 0.2387 0.007 0c0.0262,-0.0355 0.0594,-0.0705 0.0996,-0.1042 0.0396,-0.0344 0.085,-0.0645 0.1354,-0.0904 0.0505,-0.026 0.106,-0.0465 0.1667,-0.0627 0.06,-0.0157 0.1245,-0.0235 0.1916,-0.0235 0.1194,0 0.2274,0.0247 0.3225,0.0747 0.0958,0.05 0.1686,0.1284 0.2184,0.2345l0.007 0c0.0352,-0.0464 0.0741,-0.088 0.1169,-0.126 0.0434,-0.0374 0.0913,-0.0699 0.1437,-0.097 0.0524,-0.0272 0.1086,-0.0483 0.1692,-0.0633 0.0601,-0.0151 0.1252,-0.0229 0.1936,-0.0229 0.1296,0.0012 0.2382,0.0265 0.3263,0.0765 0.0881,0.05 0.1558,0.1187 0.2031,0.2061 0.0127,0.0223 0.023,0.0465 0.0319,0.073 0.0089,0.0265 0.016,0.0561 0.0217,0.0892 0.0051,0.0332 0.0096,0.0693 0.0121,0.1097 0.0026,0.0398 0.0032,0.0856 0.0032,0.1374l0 1.0615 -0.4432 0 0 -1.0422zm1.9964 0.8602l-0.0077 0c-0.0249,0.0247 -0.0549,0.05 -0.09,0.0759 -0.0345,0.026 -0.0748,0.0507 -0.1194,0.0736 -0.0448,0.0229 -0.0946,0.0416 -0.1495,0.0554 -0.0549,0.0145 -0.1143,0.0211 -0.1782,0.0211 -0.0862,0 -0.166,-0.0126 -0.2414,-0.0379 -0.0747,-0.0254 -0.1386,-0.0615 -0.1922,-0.1091 -0.0536,-0.0477 -0.0958,-0.1055 -0.1265,-0.1736 -0.0306,-0.0676 -0.0459,-0.1429 -0.0459,-0.2267 0,-0.0916 0.0178,-0.1742 0.0536,-0.2471 0.0351,-0.073 0.0849,-0.135 0.1482,-0.1857 0.0638,-0.0506 0.1398,-0.0892 0.2286,-0.1157 0.0888,-0.0265 0.1865,-0.0398 0.2938,-0.0398 0.0785,0 0.1507,0.0048 0.2171,0.0145 0.0658,0.0096 0.1239,0.0205 0.1737,0.0337l0 -0.0693c0,-0.0398 -0.007,-0.0783 -0.0217,-0.1157 -0.0141,-0.0368 -0.037,-0.0699 -0.069,-0.0989 -0.0319,-0.0289 -0.0734,-0.0518 -0.1245,-0.0687 -0.0511,-0.0169 -0.1137,-0.0253 -0.1871,-0.0253 -0.0894,0 -0.1795,0.009 -0.2695,0.0277 -0.0894,0.0193 -0.1872,0.0476 -0.2919,0.085l0 -0.3267c0.0913,-0.0374 0.1878,-0.0663 0.29,-0.0862 0.1028,-0.0205 0.2101,-0.0307 0.3218,-0.0319 0.1322,0 0.2484,0.015 0.3474,0.0458 0.099,0.0307 0.1821,0.0729 0.2485,0.1259 0.067,0.0537 0.1168,0.117 0.15,0.1899 0.0332,0.0729 0.0492,0.1525 0.0492,0.2387l0 0.6444c0,0.1133 0.0013,0.2104 0.0039,0.2917 0.0025,0.0808 0.0051,0.1537 0.0076,0.217l-0.4004 0 -0.0185 -0.182zm-0.0358 -0.5473c-0.0421,-0.0097 -0.0907,-0.0181 -0.1456,-0.0253 -0.0549,-0.0079 -0.1105,-0.0115 -0.1667,-0.0115 -0.1085,0 -0.1941,0.0199 -0.2573,0.0609 -0.0633,0.0404 -0.0946,0.1025 -0.0946,0.1862 0,0.0386 0.0071,0.0724 0.0217,0.1013 0.0141,0.0289 0.0339,0.0531 0.0582,0.0717 0.0242,0.0187 0.0523,0.0326 0.0849,0.0422 0.0326,0.0097 0.0664,0.0145 0.1028,0.0145 0.0447,0 0.0875,-0.006 0.1271,-0.0169 0.0402,-0.0114 0.0767,-0.0253 0.1105,-0.0428 0.0338,-0.0169 0.0639,-0.0362 0.0907,-0.0572 0.0268,-0.0211 0.0498,-0.0416 0.0683,-0.0615l0 -0.2616zm2.2473 0.692c-0.0561,0.0229 -0.1251,0.0416 -0.2056,0.0578 -0.0811,0.0157 -0.1667,0.0235 -0.2567,0.0235 -0.1309,0 -0.2529,-0.0174 -0.3666,-0.053 -0.1137,-0.035 -0.2126,-0.0886 -0.2976,-0.1604 -0.0849,-0.0717 -0.1514,-0.1627 -0.1999,-0.273 -0.0492,-0.1103 -0.0734,-0.2387 -0.0734,-0.3858 0,-0.1645 0.0281,-0.3062 0.0843,-0.4237 0.0562,-0.1176 0.129,-0.2134 0.2184,-0.287 0.0888,-0.0735 0.189,-0.1278 0.3008,-0.1627 0.1117,-0.0344 0.2216,-0.0518 0.3301,-0.0518 0.0812,0 0.1591,0.0066 0.2344,0.0204 0.0747,0.0133 0.1424,0.032 0.2037,0.0555l0 0.3406c-0.0549,-0.0223 -0.113,-0.0404 -0.1749,-0.0537 -0.062,-0.0138 -0.1284,-0.0205 -0.1993,-0.0205 -0.0709,0 -0.1392,0.0103 -0.2037,0.0308 -0.0652,0.0211 -0.1226,0.0536 -0.1724,0.0982 -0.0498,0.0446 -0.0895,0.1037 -0.1188,0.1772 -0.0294,0.0742 -0.0441,0.1628 -0.0441,0.2659 0,0.0753 0.0115,0.1464 0.0339,0.2127 0.0223,0.067 0.0549,0.1236 0.0983,0.1706 0.0428,0.047 0.0977,0.085 0.1648,0.1139 0.0664,0.029 0.1456,0.0435 0.2363,0.0435 0.0811,0 0.1545,-0.0079 0.2209,-0.0229 0.0658,-0.0157 0.1284,-0.0344 0.1871,-0.0567l0 0.3406zm0.9414 -2.5637l0.3857 0 0.3928 0.6161 -0.3462 0 -0.2356 -0.3743 -0.0077 0 -0.2356 0.3743 -0.3462 0 0.3928 -0.6161zm0.3761 2.3081c0.0862,0 0.1757,-0.0085 0.2695,-0.0247 0.0933,-0.0169 0.1884,-0.0404 0.2842,-0.0712l0 0.334c-0.0574,0.0235 -0.1456,0.0458 -0.2637,0.0675 -0.1188,0.0211 -0.2414,0.0313 -0.3685,0.0313 -0.1284,0 -0.2504,-0.0156 -0.366,-0.0464 -0.1155,-0.0313 -0.2158,-0.0819 -0.302,-0.1513 -0.0862,-0.0693 -0.1546,-0.1597 -0.205,-0.27 -0.0505,-0.1109 -0.076,-0.2448 -0.076,-0.4027 0,-0.1555 0.0236,-0.2911 0.0715,-0.4081 0.0473,-0.1163 0.1111,-0.2127 0.191,-0.2893 0.0798,-0.0765 0.1711,-0.1338 0.2739,-0.1724 0.1029,-0.038 0.2089,-0.0572 0.3187,-0.0572 0.115,0 0.2203,0.0162 0.3174,0.0494 0.0964,0.0331 0.1801,0.0844 0.2503,0.1555 0.0709,0.0705 0.1259,0.1615 0.1648,0.2725 0.0396,0.1115 0.0594,0.2429 0.0594,0.3948 -0.0013,0.0591 -0.0032,0.1091 -0.0057,0.1501l-1.1885 0c0.0064,0.0789 0.0249,0.1464 0.0562,0.2025 0.0313,0.0555 0.0721,0.1013 0.1226,0.1356 0.0504,0.035 0.1098,0.0603 0.1769,0.076 0.067,0.0156 0.1405,0.0241 0.219,0.0241zm-0.1781 -1.1338c-0.0556,0 -0.106,0.0096 -0.1495,0.0289 -0.0434,0.0193 -0.0811,0.0458 -0.113,0.0796 -0.0319,0.0337 -0.0575,0.0729 -0.076,0.1175 -0.0185,0.0446 -0.0313,0.0922 -0.0371,0.1429l0.7128 0c0,-0.0507 -0.0071,-0.0983 -0.0217,-0.1429 -0.0141,-0.0446 -0.0358,-0.0838 -0.0633,-0.1175 -0.0281,-0.0338 -0.0632,-0.0603 -0.1054,-0.0796 -0.0415,-0.0193 -0.0906,-0.0289 -0.1468,-0.0289zm2.0097 1.4707c-0.182,0 -0.3333,-0.0289 -0.4528,-0.0874 -0.12,-0.0578 -0.2101,-0.1368 -0.2714,-0.2357 -0.0325,-0.053 -0.0562,-0.1109 -0.0722,-0.1748 -0.0153,-0.0633 -0.0229,-0.1344 -0.0229,-0.2121l0 -1.0453 0.4432 0 0 1.0013c0,0.0578 0.0044,0.1073 0.0127,0.1495 0.009,0.0415 0.0224,0.0777 0.0396,0.1085 0.0301,0.0518 0.0722,0.0904 0.1271,0.1157 0.0549,0.0253 0.1207,0.038 0.1967,0.038 0.0798,0 0.1482,-0.0145 0.205,-0.0422 0.0562,-0.0284 0.099,-0.0718 0.1277,-0.129 0.0288,-0.0555 0.0435,-0.1327 0.0435,-0.2315l0 -1.0103 0.4432 0 0 1.0453c0,0.1392 -0.0256,0.2561 -0.0766,0.352 -0.0288,0.0536 -0.0658,0.1031 -0.1112,0.1471 -0.046,0.044 -0.0996,0.0819 -0.1609,0.1133 -0.062,0.0307 -0.1316,0.0548 -0.2101,0.0723 -0.0779,0.0169 -0.1648,0.0253 -0.2606,0.0253zm2.3949 -0.0458c-0.0498,0.0145 -0.1092,0.0253 -0.1789,0.0338 -0.0689,0.0078 -0.1334,0.012 -0.1934,0.012 -0.152,0 -0.2766,-0.0229 -0.373,-0.0693 -0.0971,-0.047 -0.1654,-0.1133 -0.205,-0.2007 -0.0287,-0.0627 -0.0428,-0.1471 -0.0428,-0.2544l0 -0.8867 -0.3391 0 0 -0.3442 0.3391 0 0 -0.4786 0.4432 0 0 0.4786 0.5237 0 0 0.3442 -0.5237 0 0 0.8319c0,0.0663 0.0109,0.1151 0.0319,0.1464 0.0371,0.0543 0.1118,0.0814 0.2223,0.0814 0.0511,0 0.1022,-0.0036 0.1526,-0.0114 0.0505,-0.0079 0.0984,-0.0175 0.1431,-0.029l0 0.346zm0.357 -1.7095l0.4438 0 0 1.7113 -0.4438 0 0 -1.7113zm-0.0109 -0.8456l0.4656 0 0 0.4538 -0.4656 0 0 -0.4538z"/>
      <path id="_218982600" class="fil2" d="M56.8369 12.5584c-0.0562,0.0229 -0.1252,0.0416 -0.2057,0.0578 -0.081,0.0157 -0.1666,0.0235 -0.2567,0.0235 -0.1309,0 -0.2529,-0.0174 -0.3665,-0.053 -0.1137,-0.035 -0.2127,-0.0886 -0.2976,-0.1604 -0.085,-0.0717 -0.1514,-0.1627 -0.1999,-0.273 -0.0492,-0.1103 -0.0735,-0.2387 -0.0735,-0.3858 0,-0.1645 0.0281,-0.3062 0.0843,-0.4237 0.0562,-0.1176 0.129,-0.2134 0.2184,-0.287 0.0888,-0.0735 0.1891,-0.1278 0.3008,-0.1627 0.1118,-0.0344 0.2216,-0.0518 0.3302,-0.0518 0.0811,0 0.159,0.0066 0.2344,0.0204 0.0747,0.0133 0.1424,0.032 0.2037,0.0555l0 0.3406c-0.0549,-0.0223 -0.113,-0.0404 -0.175,-0.0537 -0.0619,-0.0138 -0.1284,-0.0205 -0.1992,-0.0205 -0.0709,0 -0.1393,0.0103 -0.2038,0.0308 -0.0651,0.0211 -0.1226,0.0536 -0.1724,0.0982 -0.0498,0.0446 -0.0894,0.1037 -0.1188,0.1772 -0.0293,0.0742 -0.044,0.1628 -0.044,0.2659 0,0.0753 0.0115,0.1464 0.0338,0.2127 0.0224,0.067 0.0549,0.1236 0.0984,0.1706 0.0427,0.047 0.0977,0.085 0.1647,0.1139 0.0664,0.029 0.1456,0.0435 0.2363,0.0435 0.0811,0 0.1546,-0.0079 0.221,-0.0229 0.0658,-0.0157 0.1283,-0.0344 0.1871,-0.0567l0 0.3406zm1.4503 -0.1447l-0.0076 0c-0.0249,0.0247 -0.055,0.05 -0.0901,0.0759 -0.0345,0.026 -0.0747,0.0507 -0.1194,0.0736 -0.0447,0.0229 -0.0945,0.0416 -0.1495,0.0554 -0.0549,0.0145 -0.1143,0.0211 -0.1781,0.0211 -0.0862,0 -0.1661,-0.0126 -0.2414,-0.0379 -0.0747,-0.0254 -0.1386,-0.0615 -0.1922,-0.1091 -0.0537,-0.0477 -0.0958,-0.1055 -0.1265,-0.1736 -0.0307,-0.0676 -0.046,-0.1429 -0.046,-0.2267 0,-0.0916 0.0179,-0.1742 0.0537,-0.2471 0.0351,-0.073 0.0849,-0.135 0.1481,-0.1857 0.0639,-0.0506 0.1399,-0.0892 0.2287,-0.1157 0.0887,-0.0265 0.1864,-0.0398 0.2937,-0.0398 0.0786,0 0.1507,0.0048 0.2172,0.0145 0.0657,0.0096 0.1239,0.0205 0.1737,0.0337l0 -0.0693c0,-0.0398 -0.0071,-0.0783 -0.0218,-0.1157 -0.014,-0.0368 -0.037,-0.0699 -0.0689,-0.0989 -0.032,-0.0289 -0.0735,-0.0518 -0.1246,-0.0687 -0.051,-0.0169 -0.1136,-0.0253 -0.1871,-0.0253 -0.0894,0 -0.1794,0.009 -0.2695,0.0277 -0.0894,0.0193 -0.1871,0.0476 -0.2918,0.085l0 -0.3267c0.0913,-0.0374 0.1877,-0.0663 0.2899,-0.0862 0.1028,-0.0205 0.2101,-0.0307 0.3219,-0.0319 0.1322,0 0.2484,0.015 0.3474,0.0458 0.099,0.0307 0.182,0.0729 0.2484,0.1259 0.0671,0.0537 0.1169,0.117 0.1501,0.1899 0.0332,0.0729 0.0492,0.1525 0.0492,0.2387l0 0.6444c0,0.1133 0.0013,0.2104 0.0038,0.2917 0.0026,0.0808 0.0051,0.1537 0.0077,0.217l-0.4005 0 -0.0185 -0.182zm-0.0357 -0.5473c-0.0422,-0.0097 -0.0907,-0.0181 -0.1456,-0.0253 -0.055,-0.0079 -0.1105,-0.0115 -0.1667,-0.0115 -0.1086,0 -0.1942,0.0199 -0.2574,0.0609 -0.0632,0.0404 -0.0945,0.1025 -0.0945,0.1862 0,0.0386 0.007,0.0724 0.0217,0.1013 0.0141,0.0289 0.0339,0.0531 0.0581,0.0717 0.0243,0.0187 0.0524,0.0326 0.085,0.0422 0.0325,0.0097 0.0664,0.0145 0.1028,0.0145 0.0447,0 0.0875,-0.006 0.1271,-0.0169 0.0402,-0.0114 0.0766,-0.0253 0.1104,-0.0428 0.0339,-0.0169 0.0639,-0.0362 0.0907,-0.0572 0.0269,-0.0211 0.0498,-0.0416 0.0684,-0.0615l0 -0.2616z"/>
     </g>
     <path id="_218985240" class="fil3" d="M16.7435 1.3117l0 6.2227 1.253 0 0 1.5565 -3.3145 0 0 -7.7792 2.0615 0zm6.1662 3.6428l0 1.5614c0,0.5724 -0.0301,0.9939 -0.0885,1.2613 -0.0585,0.2673 -0.1838,0.5166 -0.3776,0.7495 -0.1921,0.2313 -0.4393,0.4035 -0.74,0.5134 -0.3024,0.1115 -0.6499,0.1656 -1.0408,0.1656 -0.4377,0 -0.8069,-0.0459 -1.111,-0.141 -0.304,-0.0952 -0.5396,-0.2379 -0.7067,-0.4281 -0.1687,-0.1903 -0.2889,-0.4215 -0.3608,-0.6922 -0.0719,-0.2706 -0.1069,-0.6757 -0.1069,-1.2169l0 -1.6352c0,-0.5921 0.0651,-1.0547 0.1955,-1.3876 0.1302,-0.3329 0.3657,-0.6003 0.7049,-0.802 0.3391,-0.2018 0.7735,-0.3034 1.3015,-0.3034 0.4443,0 0.8252,0.0656 1.1426,0.1951 0.3191,0.1296 0.5647,0.2985 0.7368,0.5068 0.1737,0.2083 0.2907,0.4232 0.3558,0.643 0.0635,0.2214 0.0952,0.5576 0.0952,1.0103zm-1.978 -0.4806c0,-0.328 -0.0183,-0.533 -0.0535,-0.6183 -0.0366,-0.0853 -0.1135,-0.1279 -0.2305,-0.1279 -0.1169,0 -0.1954,0.0426 -0.2338,0.1279 -0.0402,0.0853 -0.0602,0.2903 -0.0602,0.6183l0 2.8768c0,0.3018 0.02,0.4986 0.0602,0.5888 0.0384,0.0919 0.1153,0.1378 0.2288,0.1378 0.1186,0 0.1955,-0.0426 0.2323,-0.1247 0.0384,-0.0836 0.0567,-0.264 0.0567,-0.5379l0 -2.9408zm4.7228 -3.1622l0 1.0137 -2.0364 0 0 -1.0137 2.0364 0zm0 1.4024l0 5.045c0,0.5937 -0.0117,0.9939 -0.0367,1.2039 -0.0251,0.2099 -0.1003,0.3952 -0.2255,0.5527 -0.1253,0.1591 -0.2941,0.2772 -0.5045,0.3543 -0.2106,0.0754 -0.5263,0.1148 -0.9473,0.1148l-0.7634 0 0 -1.0186c0.2355,0 0.3675,-0.0262 0.3975,-0.077 0.0284,-0.0509 0.0435,-0.3723 0.0435,-0.9612l0 -5.2139 2.0364 0zm2.4775 2.47l-1.856 0 0 -0.4281c0,-0.492 0.0584,-0.8725 0.1738,-1.1399 0.1169,-0.2673 0.3491,-0.5051 0.6983,-0.7101 0.3492,-0.2051 0.8019,-0.3067 1.3599,-0.3067 0.6699,0 1.1727,0.1164 1.5119,0.3477 0.3408,0.2329 0.5446,0.5182 0.6131,0.8561 0.0685,0.3379 0.1019,1.0333 0.1019,2.0879l0 3.1999 -1.9229 0 0 -0.5675c-0.1203,0.228 -0.2773,0.3986 -0.4678,0.5117 -0.1904,0.1148 -0.4176,0.1706 -0.6833,0.1706 -0.3458,0 -0.6632,-0.0951 -0.9522,-0.2854 -0.2874,-0.1902 -0.4327,-0.6085 -0.4327,-1.2514l0 -0.5248c0,-0.4773 0.0769,-0.8021 0.2306,-0.9743 0.1537,-0.1738 0.5329,-0.3756 1.141,-0.6052 0.6482,-0.2509 0.9957,-0.4182 1.0424,-0.5051 0.0451,-0.087 0.0686,-0.2625 0.0686,-0.5282 0,-0.3329 -0.0268,-0.5511 -0.0769,-0.6511 -0.0502,-0.1017 -0.1337,-0.1525 -0.2522,-0.1525 -0.1337,0 -0.2172,0.0426 -0.249,0.1279 -0.0334,0.0853 -0.0485,0.3051 -0.0485,0.661l0 0.6675zm0.6266 0.8742c-0.3174,0.228 -0.5013,0.4182 -0.5514,0.5724 -0.0501,0.1542 -0.0752,0.3756 -0.0752,0.6626 0,0.3297 0.0218,0.5429 0.0652,0.6397 0.0434,0.0967 0.132,0.1443 0.2623,0.1443 0.1237,0 0.2038,-0.0377 0.2422,-0.1132 0.0368,-0.0754 0.0569,-0.2739 0.0569,-0.5937l0 -1.3121z"/>
     <path id="_217104016" class="fil4" d="M37.9486 5.8664c0,0.7823 -0.0185,1.3351 -0.0552,1.6598 -0.0384,0.3264 -0.1554,0.6233 -0.3525,0.8922 -0.1972,0.269 -0.4644,0.4757 -0.8002,0.62 -0.3358,0.1443 -0.7283,0.2165 -1.1745,0.2165 -0.4243,0 -0.8052,-0.0689 -1.1426,-0.205 -0.3392,-0.1361 -0.6099,-0.3395 -0.8153,-0.6118 -0.2054,-0.2722 -0.3275,-0.5691 -0.3675,-0.8889 -0.0385,-0.3215 -0.0585,-0.8824 -0.0585,-1.6828l0 -1.3302c0,-0.7823 0.0184,-1.335 0.0568,-1.6614 0.0367,-0.3248 0.1537,-0.6216 0.3525,-0.8906 0.1971,-0.269 0.4627,-0.4756 0.8002,-0.62 0.3358,-0.1443 0.7267,-0.2165 1.1744,-0.2165 0.4244,0 0.8053,0.0689 1.1428,0.2051 0.3374,0.1361 0.6097,0.3395 0.8152,0.6117 0.2055,0.2723 0.3274,0.5691 0.3659,0.889 0.04,0.3214 0.0585,0.8807 0.0585,1.6827l0 1.3302zm-2.0599 -2.5553c0,-0.3625 -0.0201,-0.5938 -0.0618,-0.6954 -0.0402,-0.1001 -0.1237,-0.1509 -0.2506,-0.1509 -0.1086,0 -0.1905,0.041 -0.2473,0.123 -0.0585,0.0803 -0.0868,0.3214 -0.0868,0.7233l0 3.6312c0,0.4527 0.02,0.7315 0.0567,0.8365 0.0368,0.1066 0.1253,0.1591 0.2623,0.1591 0.1404,0 0.2289,-0.0607 0.269,-0.1821 0.0384,-0.123 0.0585,-0.4116 0.0585,-0.8709l0 -3.5738zm4.7813 -0.597l-0.0334 0.5871c0.142,-0.2345 0.3174,-0.41 0.5246,-0.5265 0.2088,-0.1164 0.4476,-0.1754 0.7183,-0.1754 0.3392,0 0.6165,0.0787 0.832,0.2361 0.2155,0.1558 0.3541,0.3543 0.4159,0.5921 0.0619,0.2395 0.0919,0.638 0.0919,1.194l0 4.4694 -1.9762 0 0 -4.4152c0,-0.4396 -0.0151,-0.7069 -0.0452,-0.8037 -0.0284,-0.0951 -0.1103,-0.1443 -0.2439,-0.1443 -0.1404,0 -0.2289,0.0557 -0.2639,0.1673 -0.0368,0.1098 -0.0535,0.4051 -0.0535,0.8856l0 4.3103 -1.978 0 0 -6.3768 2.0114 0zm5.2674 -1.4024l0 7.7792 -2.0365 0 0 -7.7792 2.0365 0zm2.7465 0l0 1.0137 -2.0365 0 0 -1.0137 2.0365 0zm0 1.4024l0 6.3768 -2.0365 0 0 -6.3768 2.0365 0zm2.7214 0l-0.0334 0.5871c0.142,-0.2345 0.3174,-0.41 0.5246,-0.5265 0.2088,-0.1164 0.4477,-0.1754 0.7183,-0.1754 0.3392,0 0.6165,0.0787 0.832,0.2361 0.2155,0.1558 0.3541,0.3543 0.416,0.5921 0.0618,0.2395 0.0918,0.638 0.0918,1.194l0 4.4694 -1.9762 0 0 -4.4152c0,-0.4396 -0.0151,-0.7069 -0.0451,-0.8037 -0.0285,-0.0951 -0.1103,-0.1443 -0.244,-0.1443 -0.1403,0 -0.2289,0.0557 -0.2639,0.1673 -0.0368,0.1098 -0.0535,0.4051 -0.0535,0.8856l0 4.3103 -1.978 0 0 -6.3768 2.0114 0zm7.7099 3.3016l-2.5611 0 0 1.3793c0,0.2887 0.0217,0.474 0.0635,0.5576 0.0434,0.0821 0.1253,0.1247 0.2456,0.1247 0.1503,0 0.2506,-0.0558 0.3007,-0.1657 0.0501,-0.1115 0.0768,-0.3247 0.0768,-0.6412l0 -0.8414 1.8745 0 0 0.4707c0,0.3936 -0.0268,0.697 -0.0769,0.9086 -0.0501,0.2116 -0.1687,0.4363 -0.3542,0.6774 -0.1871,0.2395 -0.4226,0.4199 -0.7083,0.5396 -0.284,0.1214 -0.6432,0.1804 -1.0742,0.1804 -0.4176,0 -0.7852,-0.059 -1.106,-0.1771 -0.319,-0.1181 -0.5679,-0.2805 -0.7451,-0.4871 -0.1787,-0.2067 -0.3023,-0.4347 -0.3708,-0.6823 -0.0685,-0.2493 -0.1019,-0.6102 -0.1019,-1.0842l0 -1.8599c0,-0.5576 0.0768,-0.9972 0.2289,-1.3186 0.1537,-0.3215 0.4059,-0.5692 0.7551,-0.7397 0.3491,-0.1723 0.75,-0.2575 1.2028,-0.2575 0.5546,0 1.0124,0.1033 1.3732,0.3099 0.3609,0.2067 0.6131,0.4806 0.7585,0.8217 0.1453,0.3412 0.2189,0.8201 0.2189,1.4384l0 0.8464zm-1.9831 -1.0383l0 -0.4658c0,-0.3296 -0.0183,-0.5428 -0.0535,-0.6396 -0.0366,-0.0951 -0.1102,-0.1443 -0.2205,-0.1443 -0.1369,0 -0.2222,0.041 -0.2539,0.123 -0.0334,0.082 -0.0501,0.3018 -0.0501,0.6609l0 0.4658 0.578 0z"/>
    </g>
   </g>
  </g>
  <polygon class="fil5" points="0,0 60,0 60,14 0,14 "/>
 </g>
</svg>
